<?xml version="1.0" encoding="utf-8"?>
<!-- Generator: Adobe Illustrator 28.1.0, SVG Export Plug-In . SVG Version: 6.00 Build 0)  -->
<svg version="1.1" id="Layer_1" xmlns="http://www.w3.org/2000/svg" xmlns:xlink="http://www.w3.org/1999/xlink" x="0px" y="0px"
	 viewBox="0 0 444.7 81.8" style="enable-background:new 0 0 444.7 81.8;" xml:space="preserve">
<style type="text/css">
	.st0{fill:#FFFFFF;}
</style>
<path class="st0" d="M73.6,21.8V8.5h8.1v13.1c0,3.7,1.4,5.1,3.7,5.1s3.7-1.4,3.7-5.1V8.5h8v13.3c0,7.2-4.4,11.4-11.8,11.4
	S73.6,29.1,73.6,21.8z M145.7,8.5v24.2H139l-9.2-11v11h-7.9V8.5h6.7l9.2,11v-11H145.7z M170.6,8.5h8.1v17.9h10.9v6.3h-19.1V8.5z
	 M212.3,8.5h8.1v24.2h-8.1L212.3,8.5z M266.9,32.7l-0.1-11l-5.2,8.8H258l-5.2-8.5v10.6h-7.4V8.5h6.7l7.9,12.9l7.7-12.9h6.7l0.1,24.2
	H266.9z M299.3,8.5h8.1v24.2h-8.1L299.3,8.5z M337,14.8H330V8.5h22.3v6.3h-7.1v17.8H337L337,14.8z M394.9,26.5v6.1h-20.1V8.5h19.6
	v6.2h-11.6v2.8H393v5.9h-10.2v3.2L394.9,26.5z M419.1,8.5h11.9c8.1,0,13.6,4.6,13.6,12.1s-5.6,12.1-13.6,12.1h-11.9L419.1,8.5z
	 M430.7,26.4c3.4,0,5.8-2,5.8-5.7s-2.4-5.7-5.8-5.7h-3.4v11.4L430.7,26.4z M74.3,52.6h9.6c6.9,0,11.7,4.2,11.7,10.6
	s-4.7,10.6-11.7,10.6h-9.6V52.6z M83.7,69.7c4.2,0,6.9-2.5,6.9-6.6s-2.8-6.6-6.9-6.6h-4.5v13.1H83.7z M118.3,57.2v4.3
	c-0.4,0-0.7-0.1-1.1-0.1c-2.6,0-4.3,1.4-4.3,4.5v7.7h-4.7V57.4h4.5v2.2C113.8,58,115.8,57.2,118.3,57.2z M147.3,70.8l1.3-1.5
	c1,1.6,2.7,2.6,4.6,2.6c2.6,0,3.9-1.5,3.9-4.6V54.5h-7.7v-1.9h9.9v14.7c0,4.5-2.1,6.7-6.2,6.7C150.9,73.9,148.7,72.8,147.3,70.8
	L147.3,70.8z M172.8,65.7c0-4.5,3.6-8.1,8.1-8.1s8.1,3.6,8.1,8.1c0,4.5-3.6,8.1-8.1,8.1c-4.3,0.2-7.9-3.2-8.1-7.5
	C172.8,66.1,172.8,65.9,172.8,65.7L172.8,65.7z M186.8,65.7c0-3.7-2.5-6.2-5.9-6.2c-3.4,0.2-6,3.1-5.8,6.5c0.2,3.1,2.7,5.7,5.8,5.8
	C184.3,71.9,186.8,69.4,186.8,65.7L186.8,65.7z M216.3,66.4H203c0.2,3.2,3,5.7,6.2,5.5c0,0,0,0,0,0c1.8,0.1,3.6-0.7,4.9-2.1l1.2,1.4
	c-1.6,1.7-3.8,2.7-6.1,2.6c-5,0-8.3-3.4-8.3-8.1s3.3-8.1,7.8-8.1s7.7,3.3,7.7,8.1C216.3,65.9,216.2,66.2,216.3,66.4L216.3,66.4z
	 M203,64.8h11.2c-0.2-3.1-2.9-5.5-6-5.2C205.4,59.8,203.2,62,203,64.8L203,64.8z M247.6,52.5h8.6c6.8,0,11.3,4.3,11.3,10.6
	s-4.6,10.6-11.3,10.6h-8.6V52.5z M256.1,71.8c5.6,0,9.2-3.6,9.2-8.6s-3.6-8.6-9.2-8.6h-6.2v17.3H256.1z M280.5,52.8
	c0-0.8,0.7-1.5,1.6-1.5c0.8-0.1,1.6,0.6,1.6,1.4c0.1,0.8-0.6,1.6-1.4,1.6c-0.1,0-0.2,0-0.2,0C281.2,54.3,280.5,53.7,280.5,52.8
	C280.4,52.8,280.4,52.8,280.5,52.8L280.5,52.8z M280.9,57.8h2.1v15.9h-2.2L280.9,57.8z M295.7,71.8l1-1.7c1.6,1.2,3.6,1.8,5.6,1.8
	c3,0,4.3-1,4.3-2.6c0-4.1-10.3-0.9-10.3-7.2c0-2.6,2.2-4.5,6.3-4.5c2,0,3.9,0.5,5.6,1.5l-0.9,1.7c-1.4-0.9-3-1.4-4.7-1.3
	c-2.9,0-4.1,1.1-4.1,2.6c0,4.3,10.3,1.1,10.3,7.2c0,2.8-2.4,4.5-6.5,4.5C299.9,73.9,297.6,73.2,295.7,71.8L295.7,71.8z M337.6,65.7
	c0.2,4.2-3,7.9-7.3,8.1c-0.2,0-0.4,0-0.6,0c-2.4,0.1-4.7-1.1-6-3.1v8.9h-2.1V57.8h2.1v3.1c1.3-2.1,3.6-3.4,6.1-3.3
	c4.2-0.1,7.8,3.3,7.9,7.5C337.6,65.4,337.6,65.5,337.6,65.7L337.6,65.7z M335.5,65.7c-0.1-3.3-2.9-5.8-6.2-5.7
	c-3.3,0.1-5.8,2.9-5.7,6.2c0.1,3.2,2.8,5.7,5.9,5.7c3.2,0,5.9-2.6,5.9-5.8C335.4,66,335.4,65.9,335.5,65.7L335.5,65.7z M364.9,66.4
	h-13.3c0.2,3.2,3,5.7,6.2,5.5c0,0,0,0,0,0c1.8,0.1,3.6-0.7,4.9-2.1l1.2,1.4c-1.6,1.7-3.8,2.7-6.1,2.6c-5,0-8.3-3.4-8.3-8.1
	s3.3-8.1,7.8-8.1s7.7,3.3,7.7,8.1C364.9,65.9,364.9,66.2,364.9,66.4L364.9,66.4z M351.6,64.8h11.3c-0.2-3.1-2.9-5.5-6-5.3
	C354.1,59.6,351.8,61.9,351.6,64.8z M392.6,64.4v9.2h-2.2v-9c0-3.3-1.8-5.1-4.8-5.1c-3.4,0-5.6,2.1-5.6,5.7v8.3H378V57.8h2v2.9
	c1.3-2,3.6-3.1,6-3C389.9,57.7,392.6,59.9,392.6,64.4L392.6,64.4z M418.1,71.9v1.8h-13v-1.4l10-12.7h-9.8v-1.8h12.5v1.4l-10,12.7
	L418.1,71.9z M442.9,63.8v9.9h-2.1v-2.4c-1,1.6-2.8,2.6-5.5,2.6c-3.6,0-5.8-1.9-5.8-4.6c0-2.4,1.6-4.5,6.1-4.5h5v-1
	c0-2.7-1.5-4.2-4.5-4.2c-1.9,0-3.8,0.6-5.3,1.9l-1-1.6c1.8-1.4,4.1-2.2,6.5-2.2C440.6,57.7,442.9,59.7,442.9,63.8L442.9,63.8z
	 M440.8,68.9v-2.6h-5c-3.1,0-4.1,1.2-4.1,2.8c0,1.8,1.5,3,4,3C437.9,72.3,439.9,71,440.8,68.9L440.8,68.9z M0,81.8h12.5L41.3,0H28.8
	L0,81.8z"/>
</svg>
